# xmcd
#
# Track frame offsets: 
#        150
#        27830
#        47390
#        67643
#        92250
#        113468
#        132810
#        151205
#        172800
#        196725
#        218093
#        243980
#        261518
#        280210
#        300158
#
# Disc length: 4255 seconds
#
# Revision: 2
# Processed by: cddbd v1.5.1PL0 Copyright (c) Steve Scherf et al.
# Submitted via: ExactAudioCopy v0.95a5
#
DISCID=ab109d0f
DTITLE=林忆莲 - 林忆莲滚石珍藏版24K-24Bit
DYEAR=1900
DGENRE=Pop
TTITLE0=伤痕
TTITLE1=为你我受冷风吹
TTITLE2=这些那些
TTITLE3=诱惑的街
TTITLE4=当爱已成为往事
TTITLE5=喜欢你现在的样子
TTITLE6=爱上一个不回家的人
TTITLE7=夜太黑
TTITLE8=听说爱情回来过
TTITLE9=知难不退
TTITLE10=我明白
TTITLE11=玫瑰香
TTITLE12=让我试
TTITLE13=不必在乎我是谁
TTITLE14=情人的眼泪
EXTD=
EXTT0=
EXTT1=
EXTT2=
EXTT3=
EXTT4=
EXTT5=
EXTT6=
EXTT7=
EXTT8=
EXTT9=
EXTT10=
EXTT11=
EXTT12=
EXTT13=
EXTT14=
PLAYORDER=
